<svg width="128" height="128" viewBox="0 0 128 128" fill="none" xmlns="http://www.w3.org/2000/svg">
<path d="M37.08 80.7901C37.08 80.7901 9.60997 74.9201 9.13997 75.0101C8.66997 75.1001 3.16997 80.6001 3.35997 81.4501C3.54997 82.3101 27.61 95.0001 27.61 95.0001L34.52 87.7101L37.08 80.7901ZM33.29 100.21C33.29 100.21 46.64 123.32 47.21 123.32C47.78 123.32 53.93 118.58 53.93 118.11C53.93 117.64 48.25 90.0801 48.25 90.0801L38.49 91.2201L33.29 100.21Z" fill="#006CA8"/>
<path d="M22.79 25.78C22.79 25.78 20.87 27.95 20.46 28.72C20.05 29.49 19.98 30.81 20.86 31.28C21.74 31.75 22.81 31.43 23.34 30.84C23.87 30.25 26.48 27.04 26.48 27.04C26.48 27.04 23.02 25.6 22.79 25.78ZM36.81 33.63C36.81 33.63 35.26 35.47 34.63 36.31C34.02 37.12 34.03 38.39 34.88 38.99C36.1 39.85 37.31 38.89 37.97 38.18C38.58 37.52 40.3 35.5 40.3 35.5L36.81 33.63ZM50.08 40.77C50.08 40.77 48.05 42.8 47.45 43.61C46.78 44.5 46.63 45.8 47.55 46.5C48.56 47.26 49.68 46.91 50.59 46.09C51.5 45.28 53.53 43.05 53.53 43.05L50.08 40.77ZM85.11 75.05C85.11 75.05 82.73 76.7 82.14 77.34C81.56 77.9799 81.17 79.26 81.92 79.93C82.66 80.6 83.78 80.54 84.44 80.1C85.1 79.66 88.4 77.17 88.4 77.17C88.4 77.17 85.38 74.94 85.11 75.05ZM93.13 87.61C93.13 87.61 91.16 88.99 90.34 89.64C89.54 90.27 89.23 91.5 89.9 92.3C90.85 93.44 92.28 92.8299 93.09 92.31C93.85 91.8299 96.03 90.31 96.03 90.31L93.13 87.61ZM100.47 100.45C100.47 100.45 98.02 101.93 97.23 102.57C96.37 103.28 95.91 104.5 96.64 105.4C97.44 106.38 98.61 106.3 99.69 105.74C100.77 105.18 103.27 103.5 103.27 103.5L100.47 100.45ZM57.27 23.73C57.27 23.73 56.92 21.4 58.81 18.77C60.7 16.14 66.97 9.99995 67.94 9.94995C68.91 9.89995 71.23 11.13 73.56 13.42C75.78 15.59 76.81 18.38 76.85 19.04C76.89 19.7 72.51 24.04 71.37 25.09C70.23 26.14 67.16 29.56 67.16 29.56L57.27 23.73Z" fill="#9A9A9A"/>
<path d="M60.13 24.08C60.13 24.08 67.81 14.69 69.87 16.1C71.95 17.52 63.64 25.58 63.64 25.58L60.13 24.08Z" fill="#C8C8C8"/>
<path d="M58.37 23.48C58.37 23.48 62.72 19.07 63.2 18.37C63.68 17.67 63.24 16.62 62.85 16.04C62.46 15.47 61.86 15.25 61.86 15.25C61.86 15.25 58.79 18 57.74 20.41C56.92 22.28 57.06 23.23 57.06 23.23L58.37 23.48ZM65.86 25.75C65.86 25.75 67.51 24.04 68.34 23.36C69.09 22.75 70.2 22.81 70.86 23.2C71.71 23.7 71.91 24.56 71.91 24.56L68.85 27.81L65.86 25.75Z" fill="#848484"/>
<path d="M101.96 59.45C101.96 59.45 104.47 56.53 105.93 55.07C107.44 53.56 109.9 51.51 110.4 51.55C110.9 51.6 113.11 52.94 115.19 55.07C117.56 57.49 119.03 60.5 119.07 60.78C119.12 61.05 114.69 65.48 112.72 67.17C111.31 68.38 102.54 71.96 102.54 71.51C102.56 71.05 101.96 59.45 101.96 59.45Z" fill="#9A9A9A"/>
<path d="M103.41 65.1C103.41 65.1 110.67 57.14 112.33 58.63C113.99 60.12 104.02 69.08 104.02 69.08L103.41 65.1Z" fill="#C8C8C8"/>
<path d="M102.87 63.1L105.52 60.18C106.46 59.15 106.4 57.77 106.12 57.17C105.76 56.4 104.83 56.22 104.83 56.22L101.38 59.89L102.87 63.1ZM105.38 69.71C105.38 69.71 109.54 65.96 110.25 65.37C110.96 64.78 112.11 64.36 113.02 64.99C113.7 65.46 114 66.03 114 66.03C114 66.03 110.8 69.51 108.87 70.74C107.66 71.51 104.8 71.95 104.8 71.95L105.38 69.71Z" fill="#848484"/>
<path d="M11.65 8.92001C10.67 9.00001 4.46001 16.34 4.24001 16.88C4.02001 17.42 4.24001 18.3 5.77001 19.06C7.29001 19.82 50.24 42.5 50.9 43.04C51.55 43.59 60.06 53.07 60.06 53.07C60.06 53.07 81.1 38.57 80.99 38.14C80.88 37.7 80.23 28.66 80.23 28.66C80.23 28.66 13.07 8.81001 11.65 8.92001ZM73.03 65.83C73.03 65.83 85.89 77.49 86.98 78.91C88.07 80.33 110.31 120.88 110.64 121.53C110.97 122.18 112.38 122.73 113.15 121.97C113.92 121.21 119.69 116.19 119.8 114.99C119.91 113.79 98.43 44.57 98.43 44.57L81.86 50.57L73.03 65.83Z" fill="#006CA8"/>
<path d="M66.81 43.26C66.81 43.26 56.67 33.45 55.91 32.9C55.15 32.36 7.61998 12.74 7.61998 12.74L5.66998 14.89C5.66998 14.89 53.85 35.24 54.62 35.78C55.39 36.32 64.82 45.98 64.82 45.98L66.81 43.26ZM82.4 60.45C82.4 60.45 93.57 74.17 94.24 75.06C94.91 75.95 114.5 120.71 114.5 120.71L116.45 118.89C116.45 118.89 96.88 73.22 96.53 72.6C96.18 71.98 83.17 55.9 83.17 55.9L82.4 60.45Z" fill="#014EAC"/>
<path d="M24.22 98.4C24.22 98.4 20.04 104.38 20.04 104.85C20.04 105.33 22.84 108.39 23.16 108.39C23.48 108.39 29.56 104.05 29.56 104.05L28.71 99.71L24.22 98.4Z" fill="#9A9A9A"/>
<path d="M24.22 98.4C24.22 98.4 32.5 84.47 41.37 72.02C50.48 59.23 57.87 51.86 69.23 39.5C83.48 24 92.97 15.22 101.75 9.31C109.03 4.41 119.43 1.09 123.14 4.4C127.21 8.04 122.72 19.52 118.15 26.06C107.78 40.9 98.88 47.96 88.67 57.87C78.6 67.64 70.09 76.12 59.55 84.03C52.45 89.36 29.55 104.07 29.55 104.07L24.22 98.4Z" fill="#C8C8C8"/>
<path d="M103.92 11.05L106.69 13.97C106.69 13.97 111.33 9.50001 114.8 12.83C118.36 16.24 113.45 21.08 113.45 21.08L116.44 24.42C116.44 24.42 124.55 15.24 117.93 9.27001C112.17 4.07001 103.92 11.05 103.92 11.05Z" fill="#3B5361"/>
<path d="M47.84 74C46.55 75.24 31.31 93.28 30.46 94.35C29.37 95.73 28.87 97.39 30.1 98.41C31.33 99.42 32.66 98.42 33.87 97.61C35.39 96.6 53.05 81.02 54.22 79.94C56.1 78.2 56.42 75.06 54.44 73.28C52.26 71.32 49.8 72.12 47.84 74Z" fill="#9A9A9A"/>
<path d="M47.29 69.9101C46.42 69.1601 45.34 69.6601 44.2 70.8901C43.22 71.9601 42.77 73.6201 43.75 74.2901C44.73 74.9601 46.03 73.9801 46.84 72.9901C47.65 72.0101 48.27 70.7601 47.29 69.9101ZM50.11 64.0901C49.21 65.1201 47.9 66.8201 49.13 68.0301C50.34 69.2201 52.17 67.7101 52.97 66.8101C53.76 65.9101 62.81 55.2901 74.26 43.8501C85.44 32.6701 92.96 25.6001 94.12 24.3601C95.1 23.3101 95.01 21.6401 94.15 21.1101C93.13 20.4801 92 20.8801 90.6 22.2801C89.2 23.6801 79.7 32.3701 70.74 41.4301C61.78 50.4901 51.23 62.8001 50.11 64.0901Z" fill="#DFDFDF"/>
<path d="M105.47 41.61C105.47 41.61 104.92 37.89 102.61 39.35C100.13 40.92 101.98 45.18 101.98 45.18C101.98 45.18 102.91 44.31 103.9 43.27C104.72 42.42 105.2 41.92 105.47 41.61ZM96.6 50.36C96.6 50.36 96.21 45.59 93.59 47.55C91.5 49.12 92.92 53.81 92.92 53.81C92.92 53.81 94.12 52.72 94.9 51.98C95.69 51.23 96.6 50.36 96.6 50.36ZM88.14 58.38C88.14 58.38 87.84 54.42 85.49 55.73C83.14 57.04 84.71 61.72 84.71 61.72C84.71 61.72 85.75 60.78 86.45 60.08C87.15 59.38 88.14 58.38 88.14 58.38ZM78.56 67.64C78.56 67.64 78.38 63.7 76.07 64.75C73.67 65.84 75.11 70.89 75.11 70.89C75.11 70.89 76.28 69.8 76.93 69.19C77.59 68.59 78.56 67.64 78.56 67.64Z" fill="#3B5361"/>
</svg>
