<svg width="36" height="36" viewBox="0 0 36 36" fill="none" xmlns="http://www.w3.org/2000/svg">
<path d="M9.54674 10.7033C9.54661 9.24359 9.92446 7.80876 10.6435 6.53847C11.3625 5.26818 12.3982 4.20573 13.6498 3.45455C14.9013 2.70337 16.326 2.28908 17.7852 2.252C19.2444 2.21492 20.6884 2.55632 21.9765 3.24296C23.2645 3.9296 24.3529 4.93808 25.1355 6.17021C25.9181 7.40234 26.3684 8.81612 26.4424 10.2739C26.5164 11.7317 26.2116 13.1838 25.5578 14.4889C24.904 15.7939 23.9234 16.9074 22.7115 17.721C25.189 18.6452 27.341 20.2759 28.9008 22.4112C30.4605 24.5465 31.3596 27.0925 31.4865 29.7338C31.4968 29.9552 31.4633 30.1766 31.388 30.3851C31.3127 30.5936 31.1971 30.7853 31.0477 30.9491C30.8982 31.1129 30.718 31.2457 30.5173 31.3399C30.3165 31.434 30.0992 31.4876 29.8777 31.4978H6.12224C5.67532 31.4768 5.25503 31.2792 4.95378 30.9484C4.65252 30.6176 4.49496 30.1807 4.51574 29.7338C4.64222 27.0921 5.54105 24.5456 7.10085 22.4099C8.66065 20.2742 10.8129 18.6431 13.2907 17.7188C12.1385 16.9468 11.1942 15.9029 10.5412 14.6793C9.88825 13.4557 9.54669 12.0902 9.54674 10.7033Z" fill="#0075FF"/>
</svg>
