<svg width="24" height="25" viewBox="0 0 24 25" fill="none" xmlns="http://www.w3.org/2000/svg">
<path d="M21.5303 14.9697L19.5 12.9395V10.25C19.4977 8.39138 18.8063 6.59964 17.5595 5.22124C16.3127 3.84284 14.5991 2.9757 12.75 2.7875V1.25H11.25V2.7875C9.40093 2.9757 7.68732 3.84284 6.44053 5.22124C5.19373 6.59964 4.50233 8.39138 4.5 10.25V12.9395L2.46975 14.9697C2.32909 15.1104 2.25004 15.3011 2.25 15.5V17.75C2.25 17.9489 2.32902 18.1397 2.46967 18.2803C2.61032 18.421 2.80109 18.5 3 18.5H8.25V19.0828C8.23369 20.0342 8.56905 20.9583 9.19184 21.6778C9.81462 22.3973 10.681 22.8617 11.625 22.982C12.1464 23.0337 12.6728 22.9757 13.1704 22.8117C13.6681 22.6478 14.1259 22.3815 14.5144 22.03C14.9029 21.6785 15.2136 21.2495 15.4264 20.7707C15.6392 20.292 15.7494 19.7739 15.75 19.25V18.5H21C21.1989 18.5 21.3897 18.421 21.5303 18.2803C21.671 18.1397 21.75 17.9489 21.75 17.75V15.5C21.75 15.3011 21.6709 15.1104 21.5303 14.9697ZM14.25 19.25C14.25 19.8467 14.0129 20.419 13.591 20.841C13.169 21.2629 12.5967 21.5 12 21.5C11.4033 21.5 10.831 21.2629 10.409 20.841C9.98705 20.419 9.75 19.8467 9.75 19.25V18.5H14.25V19.25ZM20.25 17H3.75V15.8105L5.78025 13.7803C5.92091 13.6396 5.99996 13.4489 6 13.25V10.25C6 8.6587 6.63214 7.13258 7.75736 6.00736C8.88258 4.88214 10.4087 4.25 12 4.25C13.5913 4.25 15.1174 4.88214 16.2426 6.00736C17.3679 7.13258 18 8.6587 18 10.25V13.25C18 13.4489 18.0791 13.6396 18.2197 13.7803L20.25 15.8105V17Z" fill="black"/>
</svg>
