<svg width="36" height="36" viewBox="0 0 36 36" fill="none" xmlns="http://www.w3.org/2000/svg">
<path d="M18 18C16.35 18 14.9375 17.4125 13.7625 16.2375C12.5875 15.0625 12 13.65 12 12C12 10.35 12.5875 8.9375 13.7625 7.7625C14.9375 6.5875 16.35 6 18 6C19.65 6 21.0625 6.5875 22.2375 7.7625C23.4125 8.9375 24 10.35 24 12C24 13.65 23.4125 15.0625 22.2375 16.2375C21.0625 17.4125 19.65 18 18 18ZM6 30V25.8C6 24.95 6.219 24.169 6.657 23.457C7.095 22.745 7.676 22.201 8.4 21.825C9.95 21.05 11.525 20.469 13.125 20.082C14.725 19.695 16.35 19.501 18 19.5C19.65 19.5 21.275 19.694 22.875 20.082C24.475 20.47 26.05 21.051 27.6 21.825C28.325 22.2 28.9065 22.744 29.3445 23.457C29.7825 24.17 30.001 24.951 30 25.8V30H6ZM9 27H27V25.8C27 25.525 26.9315 25.275 26.7945 25.05C26.6575 24.825 26.476 24.65 26.25 24.525C24.9 23.85 23.5375 23.344 22.1625 23.007C20.7875 22.67 19.4 22.501 18 22.5C16.6 22.5 15.2125 22.669 13.8375 23.007C12.4625 23.345 11.1 23.851 9.75 24.525C9.525 24.65 9.3435 24.825 9.2055 25.05C9.0675 25.275 8.999 25.525 9 25.8V27ZM18 15C18.825 15 19.5315 14.7065 20.1195 14.1195C20.7075 13.5325 21.001 12.826 21 12C21 11.175 20.7065 10.469 20.1195 9.882C19.5325 9.295 18.826 9.001 18 9C17.175 9 16.469 9.294 15.882 9.882C15.295 10.47 15.001 11.176 15 12C15 12.825 15.294 13.5315 15.882 14.1195C16.47 14.7075 17.176 15.001 18 15Z" fill="black"/>
</svg>
