<svg width="128" height="128" viewBox="0 0 128 128" fill="none" xmlns="http://www.w3.org/2000/svg">
<path d="M83.1 44.23L83.64 21.6C83.66 20.8 84.11 20.11 84.78 19.89C86.16 19.44 88.82 18.84 92.78 19.11C95.72 19.31 97.51 19.88 98.49 20.32C99.11 20.6 99.5 21.31 99.48 22.08L98.94 44.74L83.1 44.23Z" fill="#356477"/>
<path d="M98.49 20.32C97.51 19.88 95.72 19.32 92.78 19.11C88.82 18.84 86.16 19.44 84.78 19.89C84.12 20.11 83.66 20.8 83.64 21.6L83.5 27.45C83.59 27.41 83.67 27.35 83.76 27.32C85.27 26.87 88.18 26.28 92.53 26.57C95.76 26.78 97.72 27.35 98.8 27.8C99 27.88 99.17 28.01 99.33 28.16L99.47 22.07C99.49 21.31 99.11 20.59 98.49 20.32Z" fill="#F44336"/>
<path d="M51.53 38.53L52.15 11.96C52.17 11.2 52.7 10.55 53.47 10.34C55.06 9.90999 58.15 9.33999 62.74 9.59999C66.15 9.78999 68.22 10.33 69.37 10.75C70.09 11.01 70.54 11.69 70.52 12.42L69.89 39.02L51.53 38.53Z" fill="#356477"/>
<path d="M69.37 10.75C68.23 10.33 66.16 9.79999 62.74 9.59999C58.14 9.33999 55.06 9.90999 53.47 10.34C52.7 10.55 52.17 11.2 52.15 11.96L51.99 17.51C52.09 17.47 52.18 17.41 52.3 17.39C54.05 16.96 57.43 16.4 62.47 16.68C66.22 16.88 68.49 17.42 69.74 17.84C69.97 17.92 70.17 18.04 70.35 18.18L70.52 12.41C70.54 11.69 70.09 11.01 69.37 10.75Z" fill="#F44336"/>
<path d="M86.01 26.82C87.36 26.6 89.12 26.45 91.27 26.52V19.05C89.01 19.01 87.26 19.26 86.01 19.55V26.82ZM55.03 16.9C56.42 16.72 58.18 16.6 60.29 16.62V9.54004C58.09 9.55004 56.33 9.75004 55.03 9.99004V16.9Z" fill="#FF7555"/>
<path d="M54.33 73.61L53.91 82.01L19.26 80.44L19.52 73.61C19.52 73.61 27.3 62.17 27.3 38.65L59.86 36.71C59.86 36.71 61.41 40.03 60.25 49.9C58.31 66.63 54.33 73.61 54.33 73.61Z" fill="#EEEEEE"/>
<path d="M59.97 44.76L27.07 45.56C26.97 46.95 26.85 48.29 26.71 49.57L59.79 49L59.97 44.76ZM59.5 57.05L25.51 57.15C25.21 58.58 24.89 59.92 24.56 61.16H58.65L59.5 57.05ZM54.96 68.97L21.92 68.9C21.1 70.82 20.39 72.15 19.96 72.89L52.68 72.96C52.69 72.96 54.46 70.29 54.96 68.97Z" fill="#82AEC0"/>
<path d="M52.56 73.6599L118.29 81.3099L119.41 68.7299L108.27 67.3299L110.29 45.1399L59.99 36.9399C60.37 61.4999 54.34 70.7499 52.56 72.9699V73.6599Z" fill="#82AEC0"/>
<path d="M109.68 51.75L59.88 44.73C59.88 44.73 59.68 47.93 59.57 49.03L109.32 55.75L109.68 51.75ZM108.26 67.33L108.62 63.38L58.55 57.06C58.28 58.46 58.01 59.93 57.7 61.14L108.26 67.33ZM54.96 68.97C54.05 70.71 53.01 72.29 52.54 72.97L52.53 73.12L118.37 80.34L118.72 76.35L54.96 68.97Z" fill="#365666"/>
<path d="M105.82 55.27L106.28 51.27L104.3 50.99L103.84 55L99.54 54.4199L100.01 50.38L98.03 50.0999L97.56 54.15L93.26 53.57L93.73 49.5L91.75 49.22L91.28 53.2999L86.98 52.72L87.45 48.61L85.47 48.33L84.99 52.45L80.69 51.8699L81.17 47.7299L79.19 47.45L78.71 51.61L74.41 51.0299L74.89 46.8499L72.91 46.57L72.43 50.7599L68.13 50.18L68.62 45.9599L66.64 45.68L66.15 49.91L59.5 49.0099C59.5 49.0099 59.42 49.89 59.4 50.43C59.38 50.97 59.3 52.0099 59.3 52.0099L109.05 58.6899L109.32 55.7299L105.82 55.27ZM110.08 47.36L59.84 39.72L59.86 36.7L110.36 44.34L110.08 47.36ZM104.79 66.9L105.21 62.9599L103.23 62.7099L102.81 66.65L98.51 66.12L98.93 62.1699L96.95 61.9199L96.53 65.87L92.23 65.3399L92.65 61.38L90.67 61.13L90.25 65.0899L85.95 64.5599L86.37 60.59L84.39 60.34L83.97 64.3099L79.67 63.7799L80.09 59.81L78.11 59.56L77.69 63.54L73.39 63.0099L73.81 59.0299L71.83 58.7799L71.41 62.7599L67.11 62.2299L67.53 58.24L65.51 58L65.08 61.99L57.71 61.1399C57.71 61.1399 57.51 61.84 56.9 63.99L119.14 71.73L119.42 68.7099L104.79 66.9ZM114.05 79.8L114.47 75.86L112.49 75.6299L112.06 79.58L107.43 79.04L107.85 75.0899L105.87 74.86L105.44 78.8099L100.81 78.2799L101.24 74.33L99.25 74.0999L98.82 78.05L94.19 77.5199L94.62 73.5599L92.63 73.33L92.2 77.29L87.57 76.76L88 72.79L86.01 72.5599L85.58 76.5299L80.95 76L81.38 72.0299L79.39 71.8L78.96 75.7699L74.33 75.23L74.76 71.26L72.77 71.0299L72.34 75.01L67.71 74.47L68.14 70.4899L66.15 70.26L65.72 74.2399L61.09 73.7099L61.52 69.73L59.53 69.4899L59.1 73.48L52.52 72.9599L51.87 82.75L117.59 89.47L118.38 80.3099L114.05 79.8Z" fill="#EEEEEE"/>
<path d="M6.14999 78.96C6.14999 78.96 4.02999 78.86 4.21999 80.95C4.21999 80.95 1.72999 97.55 8.62999 108.95C15.26 119.89 24.43 124 28.52 124H108.98C114 124 119.21 120.22 121.01 114.61C122.42 110.2 123.67 94.26 123.93 89.4C123.97 88.62 123.38 87.95 122.6 87.89C122.6 87.89 49.73 78.85 6.14999 78.96Z" fill="#356477"/>
<path d="M123.48 95.94C123.48 95.94 47.46 90.75 3.86 91.11L3.84 85.47C47.66 85.1 122.9 93.3 123.67 93.36L123.48 95.94Z" fill="#F44336"/>
<path d="M19.38 78.33L19.31 79.16C55.58 80.21 102.57 85.53 117.78 87.32L117.95 85.32C106.93 84.03 79.28 80.97 51.15 78.96C40.33 78.19 19.38 78.33 19.38 78.33Z" fill="#82AEC0"/>
</svg>
