<svg width="10" height="11" viewBox="0 0 10 11" fill="none" xmlns="http://www.w3.org/2000/svg">
<path d="M2.18225 3.56751C2.1822 3.08095 2.30815 2.60268 2.54783 2.17925C2.7875 1.75582 3.13274 1.40166 3.54992 1.15127C3.96711 0.900881 4.44202 0.762781 4.92842 0.750421C5.41482 0.738061 5.89613 0.851861 6.32549 1.08074C6.75485 1.30962 7.11763 1.64578 7.3785 2.05649C7.63937 2.4672 7.78945 2.93846 7.81412 3.42439C7.83879 3.91032 7.73721 4.39436 7.51928 4.82938C7.30134 5.2644 6.97447 5.63557 6.5705 5.90676C7.39635 6.21482 8.11367 6.7584 8.63359 7.47016C9.15352 8.18193 9.45319 9.03059 9.4955 9.91101C9.49892 9.98483 9.48777 10.0586 9.46267 10.1281C9.43757 10.1976 9.39902 10.2615 9.34922 10.3161C9.29942 10.3707 9.23934 10.415 9.17243 10.4464C9.10552 10.4778 9.03308 10.4956 8.95925 10.499H1.04075C0.891773 10.492 0.751677 10.4261 0.651259 10.3159C0.550841 10.2056 0.498321 10.06 0.505246 9.91101C0.547405 9.03046 0.847016 8.18163 1.36695 7.46972C1.88688 6.75782 2.60428 6.21412 3.43025 5.90601C3.04618 5.64868 2.73141 5.30072 2.51375 4.89286C2.29608 4.485 2.18223 4.02981 2.18225 3.56751Z" fill="#C4C4C4"/>
</svg>
