<svg width="12" height="11" viewBox="0 0 12 11" fill="none" xmlns="http://www.w3.org/2000/svg">
<path d="M8.763 2.55809L7.1735 0.32959L1.329 4.99859L1.005 4.99509V5.00009H0.75V11.0001H11.25V5.00009H10.769L9.812 2.20059L8.763 2.55809ZM9.7125 5.00009H4.6985L8.433 3.72709L9.194 3.48359L9.7125 5.00009ZM7.775 2.89509L3.92 4.20909L6.973 1.77009L7.775 2.89509ZM1.75 9.08459V6.91459C1.96095 6.83984 2.15255 6.71895 2.31085 6.56074C2.46914 6.40254 2.59013 6.211 2.665 6.00009H9.335C9.40983 6.21107 9.53081 6.40269 9.6891 6.56099C9.8474 6.71928 10.039 6.84025 10.25 6.91509V9.08509C10.039 9.15992 9.8474 9.2809 9.6891 9.43919C9.53081 9.59749 9.40983 9.78911 9.335 10.0001H2.666C2.59109 9.78893 2.46998 9.59716 2.31151 9.43877C2.15304 9.28039 1.9612 9.15938 1.75 9.08459Z" fill="#9A9A9A"/>
</svg>
