<svg width="128" height="128" viewBox="0 0 128 128" fill="none" xmlns="http://www.w3.org/2000/svg">
<g clip-path="url(#clip0_895_933)">
<path d="M0 120H128V128H0V120Z" fill="#D0D0D0"/>
<path d="M4 64H124V120H4V64Z" fill="#62727A"/>
<path d="M12 84H40V120H12V84Z" fill="#D6EEF0"/>
<path d="M4 54H124V66H4V54Z" fill="#3E4347"/>
<path d="M0 54C0 58.4 3.6 62 8 62C12.4 62 16 58.4 16 54H0Z" fill="#83BF4F"/>
<path d="M16 54C16 58.4 19.6 62 24 62C28.4 62 32 58.4 32 54H16Z" fill="#D33B23"/>
<path d="M32 54C32 58.4 35.6 62 40 62C44.4 62 48 58.4 48 54H32Z" fill="#83BF4F"/>
<path d="M32 36H48V54H32V36Z" fill="#C7E755"/>
<path d="M48 54C48 58.4 51.6 62 56 62C60.4 62 64 58.4 64 54H48Z" fill="#D33B23"/>
<path d="M48 36H64V54H48V36Z" fill="#F15744"/>
<path d="M0 36H16V54H0V36Z" fill="#C7E755"/>
<path d="M16 36H32V54H16V36Z" fill="#F15744"/>
<path d="M96 36H112V54H96V36Z" fill="#C7E755"/>
<path d="M112 36H128V54H112V36Z" fill="#F15744"/>
<path d="M64 54C64 58.4 67.6 62 72 62C76.4 62 80 58.4 80 54H64Z" fill="#83BF4F"/>
<path d="M64 36H80V54H64V36Z" fill="#C7E755"/>
<path d="M80 54C80 58.4 83.6 62 88 62C92.4 62 96 58.4 96 54H80Z" fill="#D33B23"/>
<path d="M80 36H96V54H80V36Z" fill="#F15744"/>
<path d="M96 54C96 58.4 99.6 62 104 62C108.4 62 112 58.4 112 54H96Z" fill="#83BF4F"/>
<path d="M112 54C112 58.4 115.6 62 120 62C124.4 62 128 58.4 128 54H112Z" fill="#D33B23"/>
<path d="M26 66C16 66 8 74 8 84H44C44 74 36 66 26 66Z" fill="white"/>
<path d="M12.6001 80H39.4001C37.6001 74.2 32.4001 70 26.0001 70C19.6001 70 14.4001 74.2 12.6001 80Z" fill="#62727A"/>
<path d="M12 84H16V120H12V84ZM36 84H40V120H36V84Z" fill="white"/>
<path d="M16 84H36V88H16V84Z" fill="#B4D7EE"/>
<path d="M54 66H114V106H54V66Z" fill="white"/>
<path d="M118 112C118 113 117 114 116 114H52C51 114 50 113 50 112V108C50 107 51 106 52 106H116C117 106 118 107 118 108V112Z" fill="#3E4347"/>
<path d="M58 70H110V102H58V70Z" fill="#D6EEF0"/>
<path d="M58 70H110V74H58V70Z" fill="#B4D7EE"/>
<path d="M32 94C30.8 94 30 95.2 30 96.6V100.6C30 102 30.8 104 31.6 104.8L32.4 105.6C33.2 106.4 34 106 34 104.6V96.8C34 95.2 33 94 32 94Z" fill="#62727A"/>
<path d="M128 36H0V4C0 1.8 1.8 0 4 0H124C126.2 0 128 1.8 128 4V36Z" fill="#3E4347"/>
<path d="M6 4C5 4 4 5 4 6V30C4 31.2 5 32 6 32H122C123 32 124 31.2 124 30V6C124 5 123 4 122 4H6Z" fill="#E8E8E8"/>
<path d="M34.9998 10.2C30.3998 8.2 25.1998 7.2 20.1998 8.6C15.3998 10 14.7998 15.8 18.7998 18.6C22.5998 21 27.3998 19 31.3998 21C32.9998 21.8 31.7998 23.2 30.7998 23.6C29.3998 24 28.1998 24 26.9998 24C24.3998 24 21.1998 23.6 18.9998 22.2C16.7998 20.8 14.7998 24.2 16.9998 25.6C20.7998 28 26.7998 28.4 30.9998 27.4C35.3998 26.4 37.7998 21.2 33.9998 18C30.7998 15.2 25.7998 16.4 21.7998 15.4C20.5998 15.2 18.9998 14.2 20.1998 12.8C21.3998 11.8 23.9998 12 25.1998 12C27.7998 12 30.9998 12.8 32.9998 13.8C35.3998 14.8 37.3998 11.2 34.9998 10.2ZM99.9998 26V10L97.9998 12C99.5998 12 110.2 11.6 107.8 14.8C106.2 16.8 100.4 16 97.9998 16C95.3998 16 95.3998 20 97.9998 20C102.4 20 111.4 20.8 112 14.6C112.6 7 103 8 97.9998 8C96.9998 8 95.9998 9 95.9998 10V26C95.9998 28.6 99.9998 28.6 99.9998 26ZM43.9998 10V26C43.9998 28.6 47.9998 28.6 47.9998 26V10C47.9998 7.4 43.9998 7.4 43.9998 10ZM59.9998 10V26C59.9998 28.6 63.9998 28.6 63.9998 26V10C63.9998 7.4 59.9998 7.4 59.9998 10Z" fill="#3E4347"/>
<path d="M45.9998 20H61.9998C64.5998 20 64.5998 16 61.9998 16H45.9998C43.3998 16 43.3998 20 45.9998 20Z" fill="#3E4347"/>
<path d="M80 26C84.4183 26 88 22.4183 88 18C88 13.5817 84.4183 10 80 10C75.5817 10 72 13.5817 72 18C72 22.4183 75.5817 26 80 26Z" stroke="#3E4347" stroke-width="2" stroke-miterlimit="10"/>
<path d="M10 20C11.1046 20 12 19.1046 12 18C12 16.8954 11.1046 16 10 16C8.89543 16 8 16.8954 8 18C8 19.1046 8.89543 20 10 20Z" fill="#3E4347"/>
<path d="M118 20C119.105 20 120 19.1046 120 18C120 16.8954 119.105 16 118 16C116.895 16 116 16.8954 116 18C116 19.1046 116.895 20 118 20Z" fill="#3E4347"/>
</g>
<defs>
<clipPath id="clip0_895_933">
<rect width="128" height="128" fill="white"/>
</clipPath>
</defs>
</svg>
